<svg width="640" height="480" xmlns="http://www.w3.org/2000/svg" xmlns:xlink="http://www.w3.org/1999/xlink">
 <!-- Created with SVG-edit - http://svg-edit.googlecode.com/ -->
 <defs>
  <svg id="svg_1" viewBox="0 0 72 72" height="72" width="72" y="0px" x="0px" xmlns:xlink="http://www.w3.org/1999/xlink">
   <path d="m68.811996,15.141c-2.348,1.039001 -4.868996,1.743001 -7.518997,2.06c2.702999,-1.62 4.778,-4.187 5.756004,-7.244c-2.529007,1.5 -5.330002,2.592 -8.313004,3.176001c-2.387001,-2.542001 -5.787998,-4.133 -9.554001,-4.133c-7.229,0 -13.091999,5.861 -13.091999,13.093c0,1.025999 0.118,2.021 0.338001,2.980999c-10.885002,-0.548 -20.528002,-5.757 -26.987001,-13.678999c-1.126,1.936 -1.771,4.184 -1.771,6.580999c0,4.542 2.312,8.551001 5.824,10.898001c-2.146001,-0.069 -4.165,-0.657001 -5.93,-1.638c-0.002,0.055 -0.002,0.110001 -0.002,0.162001c0,6.344999 4.513,11.637999 10.504,12.839998c-1.101,0.298 -2.256,0.457001 -3.449,0.457001c-0.846,0 -1.667,-0.077999 -2.464999,-0.230999c1.667,5.200001 6.499001,8.986 12.23,9.09c-4.482,3.512001 -10.129,5.605999 -16.26,5.605999c-1.055,0 -2.096,-0.061001 -3.122,-0.183998c5.794,3.716999 12.676001,5.882 20.066999,5.882c24.083002,0 37.251001,-19.949001 37.251001,-37.249002c0,-0.566 -0.014,-1.133999 -0.039001,-1.693998c2.558998,-1.847 4.778999,-4.150002 6.532997,-6.774001z"/>
  </svg>
 </defs>
 <g>
  <title>Layer 1</title>
  <use x="0" y="0" transform="rotate(180 82.01333618164062,77.62000274658203) matrix(2.222222328186035,0,0,2.222222328186035,0,0) " id="svg_2" xlink:href="#svg_1"/>
 </g>
</svg>
